<svg width="666" height="666" viewBox="0 0 666 666" fill="none" xmlns="http://www.w3.org/2000/svg">
<path d="M408.603 307.828H196.384V323.128H408.603V307.828Z" fill="#182651"/>
<path d="M397.861 176.978H209.075V307.828H397.861V176.978Z" fill="#B0E3FF"/>
<path d="M425.58 175.516L391.682 131.412H365.961L389.844 175.516C389.844 175.516 389.764 180.197 389.764 182.787C389.764 192.826 397.898 200.96 407.937 200.96C417.977 200.96 426.111 192.826 426.111 182.787C426.111 180.203 425.58 175.516 425.58 175.516Z" fill="#182A53"/>
<path d="M319.341 175.566L319.594 131.351H285.985V175.566C285.985 175.566 284.703 180.246 284.703 182.836C284.703 192.814 292.799 200.911 302.789 200.911C312.779 200.911 320.876 192.82 320.876 182.836C320.876 180.246 320.321 177.792 319.341 175.566Z" fill="#428CC9"/>
<path d="M179.53 175.516L213.428 131.412H239.15L215.266 175.516C215.266 175.516 215.346 180.197 215.346 182.787C215.346 192.826 207.212 200.96 197.173 200.96C187.134 200.96 179 192.826 179 182.787C179 180.203 179.53 175.516 179.53 175.516Z" fill="#182651"/>
<path d="M391.676 116.439H213.385V131.412H391.676V116.439Z" fill="#182651"/>
<path d="M302.167 215.581C290.61 215.581 280.663 223.838 276.156 235.721C274.515 240.038 273.59 244.823 273.572 249.874V250.04V307.828H330.774V250.04V249.874C330.755 244.823 329.83 240.038 328.19 235.721C323.676 223.838 313.729 215.581 302.179 215.581H302.167Z" fill="white"/>
<path d="M215.254 175.46L215.451 175.053C215.729 174.455 216.043 173.876 216.382 173.314L238.811 131.356H265.019L250.515 175.46C250.515 175.46 251.051 180.147 251.051 182.731C251.051 192.9 242.702 201.145 232.397 201.145C222.093 201.145 213.743 192.9 213.743 182.731C213.743 180.147 214.286 177.693 215.26 175.46H215.254Z" fill="#428CC9"/>
<path d="M250.607 175.109L264.982 131.412L285.979 131.356V182.54C285.979 192.739 277.71 201.009 267.51 201.009C257.311 201.009 249.041 192.739 249.041 182.54C249.041 179.894 249.608 177.384 250.607 175.109Z" fill="#182651"/>
<path d="M389.746 175.596L389.549 175.189C389.271 174.591 388.969 174.011 388.63 173.45L366.492 131.492H340.616L354.935 175.596C354.935 175.596 354.405 180.283 354.405 182.867C354.405 193.036 362.65 201.28 372.819 201.28C382.987 201.28 391.232 193.036 391.232 182.867C391.232 180.283 390.696 177.829 389.734 175.596H389.746Z" fill="#428CC9"/>
<path d="M354.898 175.059L340.616 131.412L319.52 131.301V182.484C319.52 192.684 327.79 200.953 337.989 200.953C348.189 200.953 356.458 192.684 356.458 182.484C356.458 179.839 355.891 177.329 354.892 175.053L354.898 175.059Z" fill="#182651"/>
<path d="M410.003 236.628H387.267L371.135 212.128V209.809C371.135 208.342 369.945 207.151 368.477 207.151H366.491C365.024 207.151 363.834 208.342 363.834 209.809V212.029L347.282 236.628H321.857C318.317 236.628 315.444 239.502 315.444 243.041V244.287C315.444 247.827 318.317 250.7 321.857 250.7H323.621L331.434 286.88C331.434 286.88 332.488 293.775 340.431 294.058C348.374 294.348 395.851 294.058 395.851 294.058C395.851 294.058 402.838 294.348 404.367 283.914C405.613 275.435 409.004 257.212 410.232 250.688C413.673 250.571 416.423 247.753 416.423 244.287V243.041C416.423 239.502 413.549 236.628 410.01 236.628H410.003ZM344.168 283.877C342.337 283.994 340.752 282.607 340.635 280.775L339.019 256.065C338.902 254.234 340.302 252.742 342.133 252.742C343.965 252.742 345.562 254.24 345.685 256.065L347.276 280.337C347.393 282.169 346.006 283.754 344.174 283.871L344.168 283.877ZM366.159 215.489L369.125 215.476L381.119 236.628H353.11L366.152 215.489H366.159ZM362.052 280.584C362.052 282.644 360.177 284.272 358.037 283.84C356.471 283.526 355.398 282.058 355.398 280.461V256.158C355.398 254.561 356.471 253.087 358.037 252.779C360.177 252.353 362.052 253.975 362.052 256.035V280.584ZM377 280.584C377 282.422 375.513 283.908 373.676 283.908C371.838 283.908 370.352 282.422 370.352 280.584V256.035C370.352 254.197 371.838 252.711 373.676 252.711C375.513 252.711 377 254.197 377 256.035V280.584ZM392.675 280.553C392.558 282.385 390.955 283.877 389.123 283.877C387.292 283.877 385.886 282.379 386.009 280.553L387.618 255.973C387.723 254.376 388.889 252.982 390.474 252.772C392.632 252.483 394.402 254.228 394.266 256.287L392.675 280.559V280.553Z" fill="#428CC9"/>
<path d="M133.808 390.794V407.715H127V366.929H141.035C145.574 366.929 149.083 367.959 151.568 370.013C154.053 372.066 155.293 375.001 155.293 378.806C155.293 380.915 154.744 382.734 153.652 384.251C152.561 385.775 150.97 386.996 148.879 387.908C151.173 388.636 152.832 389.82 153.85 391.466C154.867 393.113 155.379 395.148 155.379 397.571V400.963C155.379 402.159 155.527 403.325 155.829 404.466C156.125 405.607 156.625 406.47 157.315 407.068V407.709H150.31C149.564 407.093 149.089 406.131 148.879 404.823C148.676 403.516 148.571 402.209 148.571 400.901V397.627C148.571 395.536 147.967 393.871 146.764 392.638C145.562 391.405 143.921 390.788 141.849 390.788H133.808V390.794ZM133.808 385.337H140.671C143.397 385.337 145.389 384.813 146.641 383.77C147.893 382.722 148.515 381.131 148.515 378.979C148.515 376.827 147.899 375.316 146.666 374.15C145.432 372.985 143.557 372.399 141.035 372.399H133.808V385.343V385.337Z" fill="#4897CD"/>
<path d="M186.274 389.37H170.309V402.283H189.136V407.715H163.507V366.929H188.944V372.393H170.315V383.906H186.28V389.37H186.274Z" fill="#4897CD"/>
<path d="M216.75 397.238C216.75 395.536 216.145 394.149 214.943 393.063C213.74 391.978 211.607 391.01 208.542 390.153C204.151 388.938 200.772 387.347 198.385 385.374C196.005 383.406 194.815 380.829 194.815 377.659C194.815 374.489 196.122 371.665 198.737 369.538C201.352 367.41 204.712 366.343 208.819 366.343C213.229 366.343 216.75 367.527 219.395 369.889C222.035 372.251 223.311 375.168 223.219 378.646L223.163 378.812H216.608C216.608 376.666 215.893 374.958 214.468 373.688C213.037 372.417 211.138 371.782 208.77 371.782C206.402 371.782 204.706 372.325 203.461 373.404C202.221 374.489 201.598 375.889 201.598 377.604C201.598 379.17 202.277 380.465 203.646 381.482C205.008 382.5 207.265 383.468 210.423 384.381C214.696 385.577 217.958 387.205 220.197 389.271C222.435 391.337 223.558 393.97 223.558 397.183C223.558 400.562 222.232 403.263 219.58 405.28C216.929 407.296 213.444 408.307 209.134 408.307C204.823 408.307 201.376 407.204 198.293 405.002C195.21 402.801 193.717 399.693 193.81 395.678L193.865 395.512H200.42C200.42 397.96 201.265 399.804 202.955 401.043C204.645 402.283 206.704 402.905 209.134 402.905C211.564 402.905 213.414 402.4 214.752 401.376C216.084 400.359 216.756 398.983 216.756 397.244L216.75 397.238Z" fill="#4897CD"/>
<path d="M259.022 372.393H246.417V407.715H239.609V372.393H227.202V366.929H259.022V372.393Z" fill="#4897CD"/>
<path d="M282.381 398.188H267.927L264.788 407.709H257.758L271.99 366.923H278.459L292.519 407.709H285.489L282.381 398.188ZM269.801 392.502H280.531L275.296 376.426H275.129L269.807 392.502H269.801Z" fill="#4897CD"/>
<path d="M328.237 366.929V393.791C328.237 398.33 326.745 401.882 323.766 404.447C320.788 407.013 316.946 408.301 312.241 408.301C307.536 408.301 303.836 407.019 300.925 404.447C298.014 401.876 296.553 398.324 296.553 393.791V366.929H303.361V393.791C303.361 396.683 304.175 398.922 305.797 400.501C307.418 402.079 309.571 402.869 312.241 402.869C314.911 402.869 317.23 402.079 318.907 400.501C320.59 398.922 321.429 396.69 321.429 393.791V366.929H328.237Z" fill="#4897CD"/>
<path d="M343 390.794V407.715H336.192V366.929H350.227C354.766 366.929 358.275 367.959 360.76 370.013C363.245 372.066 364.485 375.001 364.485 378.806C364.485 380.915 363.936 382.734 362.844 384.251C361.753 385.775 360.162 386.996 358.071 387.908C360.365 388.636 362.024 389.82 363.042 391.466C364.059 393.113 364.571 395.148 364.571 397.571V400.963C364.571 402.159 364.719 403.325 365.021 404.466C365.317 405.607 365.817 406.47 366.507 407.068V407.709H359.502C358.756 407.093 358.281 406.131 358.071 404.823C357.868 403.516 357.763 402.209 357.763 400.901V397.627C357.763 395.536 357.159 393.871 355.956 392.638C354.754 391.405 353.113 390.788 351.041 390.788H343V390.794ZM343 385.337H349.863C352.589 385.337 354.581 384.813 355.833 383.77C357.085 382.722 357.707 381.131 357.707 378.979C357.707 376.827 357.091 375.316 355.857 374.15C354.624 372.985 352.749 372.399 350.227 372.399H343V385.343V385.337Z" fill="#4897CD"/>
<path d="M393.924 398.188H379.47L376.331 407.709H369.301L383.533 366.923H390.002L404.062 407.709H397.032L393.924 398.188ZM381.344 392.502H392.074L386.839 376.426H386.672L381.35 392.502H381.344Z" fill="#4897CD"/>
<path d="M440.957 407.715H434.149L416.081 378.331L415.914 378.387V407.715H409.106V366.929H415.914L433.983 396.313L434.149 396.258V366.929H440.957V407.715Z" fill="#4897CD"/>
<path d="M477.205 372.393H464.6V407.715H457.792V372.393H445.385V366.929H477.205V372.393Z" fill="#4897CD"/>
<path d="M204.399 438.142L203.986 438.069L203.671 438.013L203.258 437.94L203.114 438.335L184.406 490.034H174.755L156.054 438.231L155.913 437.843L155.506 437.907L155.191 437.957L154.769 438.023V490.028H140.5V414.894H159.673L178.874 470.582V471.004H180.044L180.161 470.669L199.598 414.9H218.668V490.034H204.399V438.142Z" fill="#1A2952" stroke="white"/>
<path d="M268.998 414.894L294.229 490.028H279.345L274.281 473.961L274.171 473.612H248.758L248.647 473.963L243.633 490.028H228.75L254.085 414.894H268.998ZM260.89 435.161L252.416 461.986L252.211 462.636H270.779L270.575 461.987L262.157 435.162L262.048 434.811H261L260.89 435.161Z" fill="#1A2952" stroke="white"/>
<path d="M317.236 414.894L347.782 465.945L347.955 466.235L348.289 466.182L348.604 466.133L349.025 466.067V414.894H363.294V490.034H348.81L318.264 438.927L318.09 438.638L317.757 438.69L317.442 438.74L317.02 438.806V490.028H302.751V414.894H317.236Z" fill="#1A2952" stroke="white"/>
<path d="M404.365 414.9C413.553 414.9 421.094 417.831 427.022 423.674C432.947 429.515 435.919 437.003 435.919 446.195V458.801C435.919 467.736 433.13 475.043 427.57 480.772L427.023 481.321C421.095 487.128 413.554 490.04 404.365 490.04H378.305V414.9H404.365ZM392.574 479.317H404.365C409.528 479.317 413.719 477.38 416.882 473.51C420.034 469.654 421.595 464.737 421.595 458.788V446.078C421.595 440.35 420.13 435.58 417.172 431.799L416.881 431.436L416.581 431.08C413.448 427.466 409.366 425.66 404.365 425.66H392.574V479.317Z" fill="#1A2952" stroke="white"/>
<path d="M464.471 414.9V490.034H450.202V414.9H464.471Z" fill="#1A2952" stroke="white"/>
<path d="M119 490.534C160.169 526.3 226.978 549.561 302.409 549.561C377.84 549.561 444.649 526.3 485.818 490.534C441.776 521.534 375.959 541.218 302.409 541.218C228.859 541.218 163.042 521.527 119 490.534Z" fill="#428CC9"/>
<path d="M291.259 582.699H291.262H293.559L290.533 582.437C290.427 582.42 290.319 582.409 290.209 582.409C289.066 582.409 288.14 583.339 288.14 584.487C288.14 585.636 289.066 586.566 290.209 586.566C291.351 586.566 292.277 585.636 292.277 584.487C292.277 583.725 291.867 583.06 291.259 582.699Z" fill="white"/>
<path d="M284.855 588.442L288.287 587.886L288.213 587.691L290.51 587.543L288.14 587.376C287.144 584.585 284.615 585.123 284.615 585.123L284.68 585.059L286.644 584.725L284.448 584.844C284.408 584.817 284.358 584.801 284.306 584.801C284.165 584.801 284.051 584.916 284.051 585.058C284.051 585.093 284.057 585.127 284.07 585.157C281.21 585.877 281.212 588.486 281.212 588.486H280.916V588.873H288.536V588.486H285.335L284.856 588.441L284.855 588.442Z" fill="white"/>
<path d="M285.969 589.357C285.969 589.357 287.408 592.412 288.985 590.931L289.836 589.953L291.829 587.844L293.018 586.745L293.766 586.21C293.766 586.21 294.367 585.695 295.405 585.89L301.148 586.321L296.391 586.342C296.391 586.342 297.336 587.1 297.827 588.775L302.842 589.144L297.931 589.15C297.931 589.15 298.505 590.715 298.166 592.266C298.166 592.266 297.585 588.608 294.624 588.803C294.624 588.803 293.849 588.914 292.562 590.833L295.828 591.083L292.382 591.097C292.382 591.097 291.55 593.023 290.51 593.461L293.42 593.704H290.023C290.023 593.704 288.425 594.309 287.221 592.932C286.018 591.556 285.969 589.356 285.969 589.356V589.357Z" fill="white"/>
<path d="M288.093 597.091C288.093 597.091 287.816 595.154 289.855 594.634C291.894 594.115 294.172 595.673 294.172 595.673L300.214 596.09L294.891 596.154L296.524 597.619L300.269 597.898H296.958C296.958 597.898 297.724 598.69 299.515 599.247C299.515 599.247 301.929 600.345 303.618 596.368C303.618 596.368 303.209 598.21 302.297 599.726C302.297 599.726 301.079 601.152 300.85 601.256C300.622 601.36 305.375 601.597 305.375 601.597L300.608 601.653C300.608 601.653 300.442 601.479 299.993 601.798C299.543 602.118 298.79 602.236 296.555 600.755C294.32 599.274 292.558 596.804 291.157 597.731C291.157 597.731 289.775 599.003 292.383 600.957C292.383 600.957 293.608 601.444 295.586 601.513C295.586 601.513 292.411 601.805 291.165 600.887C291.165 600.887 288.412 599.441 288.094 597.091H288.093Z" fill="white"/>
<path d="M342.83 582H301.815V582.716H342.83V582Z" fill="white"/>
<path d="M342.83 595.438H301.815V596.154H342.83V595.438Z" fill="white"/>
<path d="M306.298 589.694C306.337 589.599 306.382 589.504 306.414 589.407C306.808 588.237 307.201 587.066 307.594 585.896C307.617 585.829 307.635 585.759 307.662 585.694C307.821 585.322 308.092 585.126 308.505 585.121C308.917 585.116 309.208 585.294 309.357 585.674C309.567 586.211 309.761 586.756 309.961 587.297C310.217 587.988 310.472 588.68 310.729 589.372C310.762 589.459 310.802 589.544 310.845 589.646C310.98 589.564 310.975 589.447 311.001 589.352C311.32 588.15 311.636 586.947 311.955 585.746C312.092 585.233 312.538 584.952 313.018 585.069C313.536 585.194 313.835 585.693 313.688 586.216C313.495 586.9 313.289 587.58 313.087 588.261C312.682 589.623 312.276 590.985 311.871 592.347C311.85 592.415 311.833 592.485 311.807 592.551C311.674 592.905 311.403 593.1 311.047 593.114C310.647 593.131 310.357 592.957 310.204 592.592C310.043 592.207 309.909 591.811 309.764 591.42C309.409 590.462 309.055 589.504 308.699 588.546C308.666 588.457 308.621 588.373 308.581 588.287C308.562 588.285 308.542 588.283 308.523 588.282C308.484 588.374 308.438 588.464 308.406 588.559C308.053 589.602 307.702 590.646 307.35 591.69C307.248 591.993 307.152 592.298 307.04 592.598C306.89 593.002 306.607 593.185 306.186 593.181C305.826 593.178 305.584 592.999 305.435 592.683C305.368 592.539 305.322 592.384 305.272 592.233C304.652 590.351 304.032 588.469 303.413 586.587C303.333 586.342 303.255 586.101 303.344 585.834C303.475 585.44 303.766 585.196 304.157 585.187C304.604 585.176 304.919 585.378 305.051 585.792C305.226 586.342 305.381 586.899 305.545 587.452C305.744 588.125 305.943 588.797 306.144 589.469C306.166 589.543 306.199 589.613 306.227 589.685C306.25 589.688 306.274 589.691 306.298 589.694H306.298Z" fill="white"/>
<path d="M341.477 587.944C341.477 588.549 341.464 589.154 341.479 589.758C341.518 591.243 340.473 592.623 339.023 592.971C337.145 593.421 335.424 592.261 335.032 590.435C334.984 590.211 334.973 589.977 334.968 589.747C334.954 589.036 334.955 588.324 334.944 587.613C334.936 587.017 334.917 586.422 334.912 585.827C334.908 585.437 335.137 585.111 335.483 584.978C335.845 584.84 336.25 584.934 336.493 585.238C336.583 585.351 336.647 585.498 336.68 585.64C336.72 585.811 336.723 585.993 336.725 586.17C336.735 587.068 336.738 587.966 336.748 588.864C336.752 589.211 336.766 589.558 336.782 589.904C336.813 590.586 337.435 591.186 338.113 591.235C339.008 591.3 339.7 590.56 339.685 589.705C339.663 588.407 339.65 587.109 339.627 585.81C339.622 585.516 339.704 585.269 339.929 585.074C340.213 584.828 340.543 584.794 340.874 584.923C341.213 585.055 341.405 585.326 341.414 585.705C341.433 586.451 341.449 587.198 341.466 587.945C341.469 587.945 341.472 587.945 341.475 587.945L341.477 587.944Z" fill="white"/>
<path d="M324.833 584.862C325.25 584.841 325.513 585.051 325.681 585.419C326.187 586.525 326.7 587.628 327.209 588.733C327.633 589.653 328.061 590.57 328.476 591.493C328.562 591.683 328.635 591.895 328.646 592.101C328.67 592.529 328.389 592.861 327.968 592.964C327.58 593.059 327.165 592.881 326.984 592.518C326.857 592.264 326.757 591.997 326.642 591.737C326.555 591.541 326.525 591.528 326.321 591.532C325.463 591.546 324.606 591.556 323.748 591.571C323.097 591.582 323.237 591.516 323.004 592.065C322.942 592.212 322.884 592.361 322.821 592.508C322.62 592.982 322.129 593.195 321.662 593.011C321.202 592.83 320.985 592.357 321.166 591.875C321.313 591.484 321.49 591.106 321.656 590.723C322.408 588.987 323.16 587.252 323.91 585.516C323.996 585.317 324.101 585.134 324.278 585.005C324.444 584.884 324.634 584.853 324.833 584.863V584.862ZM324.877 587.593C324.68 587.841 323.912 589.775 323.906 589.984C324.081 590.043 325.631 590.018 325.872 589.94C325.56 589.162 325.225 588.399 324.877 587.593Z" fill="white"/>
<path d="M316.911 584.892C317.33 584.904 317.61 585.093 317.78 585.464C318.258 586.505 318.739 587.545 319.218 588.586C319.693 589.618 320.165 590.652 320.644 591.683C320.721 591.849 320.756 592.017 320.75 592.198C320.738 592.621 320.48 592.939 320.068 593.037C319.697 593.124 319.275 592.942 319.099 592.595C318.978 592.358 318.875 592.112 318.781 591.863C318.712 591.681 318.616 591.602 318.41 591.606C317.499 591.625 316.587 591.626 315.676 591.633C315.64 591.633 315.605 591.637 315.57 591.637C315.38 591.633 315.26 591.708 315.197 591.902C315.121 592.138 315.017 592.365 314.922 592.595C314.734 593.058 314.251 593.238 313.771 593.072C313.298 592.909 313.086 592.376 313.293 591.883C313.567 591.227 313.854 590.577 314.136 589.925C314.768 588.466 315.402 587.008 316.032 585.549C316.126 585.331 316.244 585.131 316.463 585.028C316.603 584.962 316.762 584.935 316.913 584.891L316.911 584.892ZM316.014 590.082C316.66 590.112 317.305 590.093 317.998 590.033C317.873 589.738 317.765 589.479 317.655 589.22C317.545 588.959 317.437 588.696 317.321 588.437C317.209 588.186 317.131 587.915 316.965 587.674C316.781 587.913 316.018 589.849 316.014 590.083L316.014 590.082Z" fill="white"/>
<path d="M330.907 587.739C330.998 587.614 331.057 587.538 331.111 587.458C331.581 586.758 332.052 586.058 332.52 585.356C332.705 585.078 332.95 584.928 333.291 584.915C333.945 584.891 334.403 585.567 334.102 586.233C334.062 586.321 334.002 586.4 333.948 586.482C333.304 587.451 332.662 588.421 332.013 589.387C331.894 589.564 331.833 589.74 331.841 589.957C331.864 590.642 331.872 591.326 331.886 592.011C331.897 592.532 331.571 592.916 331.058 592.984C330.634 593.042 330.22 592.751 330.105 592.307C330.081 592.214 330.079 592.114 330.077 592.017C330.066 591.341 330.055 590.665 330.05 589.989C330.049 589.757 329.969 589.566 329.833 589.378C329.146 588.428 328.471 587.47 327.789 586.517C327.644 586.315 327.554 586.105 327.567 585.85C327.584 585.482 327.788 585.172 328.119 585.043C328.466 584.909 328.847 584.987 329.097 585.253C329.169 585.33 329.231 585.418 329.293 585.505C329.758 586.155 330.222 586.806 330.687 587.455C330.747 587.539 330.814 587.618 330.908 587.738L330.907 587.739Z" fill="white"/>
<path d="M334.32 600.028C334.25 600.025 334.189 600.018 334.128 600.018C333.811 600.018 333.493 600.018 333.153 600.018C333.07 600.276 332.989 600.526 332.908 600.777C332.87 600.895 332.808 600.982 332.669 600.987C332.48 600.996 332.362 600.879 332.386 600.692C332.395 600.623 332.422 600.556 332.446 600.489C332.739 599.68 333.033 598.872 333.324 598.063C333.392 597.873 333.468 597.689 333.708 597.68C333.961 597.672 334.047 597.859 334.123 598.058C334.435 598.869 334.75 599.679 335.064 600.489C335.083 600.539 335.104 600.588 335.116 600.64C335.152 600.792 335.092 600.928 334.974 600.973C334.838 601.025 334.69 600.97 334.618 600.824C334.567 600.722 334.536 600.609 334.498 600.501C334.45 600.367 334.404 600.233 334.357 600.099C334.35 600.083 334.341 600.068 334.32 600.028ZM333.736 598.313C333.718 598.312 333.699 598.311 333.681 598.309C333.554 598.719 333.428 599.129 333.296 599.556H334.17C334.019 599.123 333.878 598.717 333.736 598.313V598.313Z" fill="white"/>
<path d="M335.822 600.73C335.822 601.003 335.822 601.225 335.822 601.445C335.822 601.481 335.822 601.517 335.822 601.552C335.815 601.774 335.739 601.882 335.594 601.875C335.455 601.868 335.38 601.767 335.38 601.563C335.378 600.673 335.38 599.783 335.378 598.893C335.378 598.758 335.406 598.639 335.55 598.598C335.687 598.559 335.764 598.643 335.823 598.753C335.83 598.767 335.851 598.771 335.845 598.768C336.016 598.706 336.167 598.624 336.327 598.597C336.821 598.516 337.24 598.786 337.417 599.289C337.542 599.645 337.536 600.006 337.401 600.36C337.164 600.977 336.518 601.183 335.964 600.821C335.936 600.802 335.908 600.785 335.822 600.731V600.73ZM337.084 599.824C337.092 599.575 337.042 599.344 336.879 599.153C336.628 598.859 336.223 598.872 335.986 599.177C335.741 599.493 335.731 600.052 335.965 600.379C336.211 600.722 336.652 600.731 336.908 600.395C337.037 600.227 337.084 600.031 337.084 599.824Z" fill="white"/>
<path d="M338.199 600.729C338.193 600.848 338.187 600.933 338.186 601.017C338.184 601.222 338.19 601.427 338.183 601.631C338.176 601.79 338.087 601.879 337.96 601.874C337.843 601.869 337.767 601.785 337.754 601.641C337.75 601.597 337.752 601.553 337.752 601.508C337.752 600.654 337.752 599.8 337.752 598.945C337.752 598.919 337.753 598.892 337.752 598.865C337.745 598.737 337.782 598.632 337.915 598.596C338.037 598.562 338.117 598.627 338.175 598.73C338.187 598.75 338.206 598.766 338.229 598.792C338.407 598.658 338.6 598.585 338.822 598.583C339.179 598.579 339.464 598.721 339.649 599.025C339.945 599.513 339.949 600.026 339.683 600.523C339.421 601.012 338.816 601.142 338.351 600.835C338.308 600.807 338.268 600.777 338.198 600.728L338.199 600.729ZM338.16 599.897C338.188 599.985 338.218 600.175 338.306 600.332C338.529 600.733 339.022 600.746 339.289 600.373C339.517 600.055 339.511 599.51 339.277 599.194C339.026 598.853 338.584 598.855 338.336 599.197C338.205 599.377 338.167 599.584 338.161 599.897H338.16Z" fill="white"/>
<path d="M314.533 598.837C314.533 598.537 314.533 598.294 314.533 598.052C314.533 597.99 314.53 597.925 314.541 597.864C314.559 597.763 314.632 597.709 314.728 597.699C314.836 597.688 314.922 597.74 314.955 597.846C314.974 597.905 314.97 597.971 314.97 598.033C314.971 598.905 314.97 599.776 314.97 600.647C314.97 600.683 314.97 600.719 314.969 600.755C314.965 600.864 314.922 600.95 314.812 600.979C314.708 601.005 314.617 600.98 314.559 600.88C314.542 600.85 314.524 600.82 314.503 600.781C314.304 600.927 314.092 600.994 313.848 600.993C313.504 600.99 313.237 600.85 313.058 600.567C312.739 600.058 312.74 599.524 313.031 599.009C313.294 598.543 313.886 598.421 314.34 598.706C314.39 598.738 314.438 598.773 314.531 598.837L314.533 598.837ZM314.545 599.794C314.557 599.57 314.507 599.354 314.369 599.166C314.13 598.841 313.706 598.832 313.45 599.142C313.181 599.465 313.175 600.067 313.437 600.399C313.693 600.724 314.13 600.717 314.373 600.383C314.498 600.21 314.55 600.014 314.544 599.794H314.545Z" fill="white"/>
<path d="M306.207 599.475C306.207 599.868 306.207 600.218 306.207 600.568C306.207 600.639 306.212 600.713 306.2 600.783C306.178 600.916 306.088 600.987 305.958 600.986C305.828 600.984 305.742 600.912 305.721 600.778C305.711 600.716 305.715 600.652 305.715 600.589C305.715 599.78 305.715 598.972 305.715 598.163C305.715 597.78 305.803 597.694 306.193 597.693C306.622 597.693 307.051 597.693 307.48 597.693C307.516 597.693 307.552 597.698 307.587 597.693C307.752 597.671 307.869 597.807 307.865 597.918C307.86 598.049 307.765 598.123 307.576 598.124C307.219 598.128 306.861 598.124 306.504 598.126C306.416 598.126 306.329 598.133 306.225 598.138V599.021C306.292 599.029 306.359 599.042 306.428 599.043C306.741 599.045 307.053 599.044 307.367 599.044C307.42 599.044 307.475 599.041 307.527 599.049C307.649 599.067 307.721 599.137 307.723 599.265C307.726 599.393 307.652 599.471 307.499 599.474C307.178 599.481 306.856 599.477 306.534 599.477C306.437 599.477 306.341 599.477 306.208 599.477L306.207 599.475Z" fill="white"/>
<path d="M311.512 600.988C310.891 600.988 310.486 600.644 310.376 600.028C310.333 599.792 310.352 599.56 310.419 599.334C310.573 598.823 311.041 598.519 311.601 598.559C312.162 598.598 312.575 598.979 312.645 599.54C312.665 599.699 312.665 599.865 312.644 600.024C312.565 600.619 312.127 600.986 311.511 600.988H311.512ZM312.236 599.75C312.209 599.626 312.192 599.483 312.145 599.35C312.048 599.069 311.832 598.928 311.531 598.922C311.209 598.917 310.992 599.053 310.88 599.337C310.787 599.569 310.787 599.811 310.83 600.053C310.895 600.415 311.141 600.628 311.492 600.638C311.844 600.648 312.093 600.452 312.182 600.089C312.208 599.985 312.217 599.878 312.237 599.751L312.236 599.75Z" fill="white"/>
<path d="M307.918 599.761C307.902 598.839 308.669 598.414 309.392 598.6C309.956 598.745 310.29 599.291 310.209 599.941C310.132 600.566 309.744 600.959 309.176 600.987C308.39 601.027 307.914 600.562 307.918 599.762V599.761ZM309.775 599.749C309.763 599.659 309.758 599.541 309.728 599.43C309.636 599.092 309.406 598.922 309.062 598.922C308.718 598.923 308.498 599.093 308.401 599.435C308.339 599.656 308.337 599.877 308.396 600.099C308.493 600.462 308.74 600.652 309.094 600.638C309.451 600.623 309.698 600.392 309.753 600.016C309.765 599.937 309.766 599.856 309.774 599.748L309.775 599.749Z" fill="white"/>
<path d="M316.41 599.36C316.41 598.986 316.423 598.612 316.406 598.239C316.389 597.865 316.539 597.706 316.902 597.728C317.149 597.744 317.398 597.73 317.645 597.732C318.405 597.734 318.882 598.116 319.03 598.864C319.104 599.242 319.101 599.627 318.999 600.002C318.826 600.639 318.375 600.984 317.718 600.989C317.408 600.991 317.098 600.992 316.788 600.988C316.528 600.985 316.416 600.877 316.412 600.615C316.405 600.197 316.41 599.779 316.41 599.36L316.41 599.36ZM316.92 600.536C317.249 600.536 317.566 600.564 317.877 600.528C318.155 600.496 318.356 600.302 318.459 600.037C318.634 599.59 318.632 599.134 318.458 598.687C318.367 598.452 318.192 598.286 317.949 598.216C317.614 598.12 317.272 598.163 316.921 598.164V600.536H316.92Z" fill="white"/>
<path d="M325.771 599.939C325.781 600.274 325.93 600.513 326.178 600.603C326.462 600.706 326.764 600.622 326.967 600.384C327.112 600.214 327.21 600.179 327.316 600.26C327.424 600.344 327.406 600.491 327.265 600.656C327.236 600.69 327.204 600.721 327.169 600.748C326.807 601.027 326.399 601.056 325.986 600.919C325.569 600.78 325.347 600.453 325.283 600.027C325.257 599.854 325.255 599.667 325.292 599.497C325.518 598.469 326.582 598.407 327.124 598.817C327.374 599.006 327.489 599.269 327.499 599.579C327.506 599.826 327.417 599.916 327.169 599.918C326.753 599.922 326.336 599.918 325.921 599.92C325.87 599.92 325.82 599.932 325.771 599.938V599.939ZM327.053 599.566C327.045 599.17 326.813 598.951 326.412 598.946C326.019 598.94 325.787 599.161 325.774 599.566H327.052H327.053Z" fill="white"/>
<path d="M319.759 599.92C319.809 600.479 320.159 600.745 320.631 600.61C320.735 600.581 320.828 600.501 320.918 600.434C320.966 600.398 320.996 600.337 321.037 600.291C321.114 600.206 321.208 600.196 321.3 600.255C321.397 600.318 321.407 600.41 321.355 600.511C321.214 600.791 320.964 600.917 320.677 600.972C320.152 601.071 319.692 600.884 319.445 600.489C319.186 600.075 319.199 599.445 319.476 599.047C319.737 598.672 320.183 598.513 320.676 598.62C321.121 598.717 321.409 599.005 321.483 599.434C321.495 599.503 321.5 599.576 321.494 599.646C321.48 599.834 321.397 599.916 321.206 599.919C320.826 599.924 320.445 599.921 320.064 599.921C319.968 599.921 319.872 599.921 319.759 599.921V599.92ZM319.764 599.582C319.992 599.582 320.203 599.586 320.413 599.582C320.628 599.577 320.845 599.601 321.059 599.565C321.018 599.143 320.797 598.947 320.394 598.947C320.017 598.947 319.804 599.149 319.764 599.583L319.764 599.582Z" fill="white"/>
<path d="M330.149 600.424C330.198 600.309 330.235 600.231 330.264 600.151C330.422 599.726 330.576 599.3 330.733 598.875C330.758 598.809 330.781 598.738 330.823 598.683C330.886 598.599 330.975 598.561 331.081 598.608C331.183 598.653 331.229 598.735 331.213 598.844C331.205 598.904 331.181 598.963 331.158 599.021C330.861 599.792 330.562 600.562 330.264 601.333C330.245 601.382 330.225 601.432 330.202 601.48C330.048 601.799 329.706 601.948 329.376 601.829C329.323 601.81 329.258 601.73 329.258 601.678C329.258 601.611 329.311 601.539 329.353 601.479C329.367 601.458 329.42 601.454 329.453 601.458C329.748 601.497 329.858 601.318 329.933 601.072C329.968 600.955 329.933 600.865 329.888 600.768C329.626 600.204 329.364 599.639 329.103 599.075C329.072 599.011 329.04 598.947 329.019 598.879C328.984 598.76 329.03 598.666 329.135 598.612C329.248 598.554 329.344 598.602 329.411 598.698C329.451 598.756 329.476 598.824 329.503 598.89C329.676 599.308 329.849 599.727 330.022 600.146C330.056 600.226 330.094 600.305 330.149 600.426V600.424Z" fill="white"/>
<path d="M324.214 600.394C324.337 600.024 324.46 599.655 324.582 599.286C324.638 599.117 324.688 598.946 324.748 598.779C324.804 598.627 324.908 598.563 325.026 598.596C325.161 598.633 325.221 598.746 325.165 598.918C325.048 599.273 324.919 599.622 324.793 599.974C324.707 600.216 324.619 600.459 324.533 600.701C324.475 600.863 324.389 600.987 324.195 600.987C324.021 600.987 323.923 600.921 323.848 600.714C323.637 600.13 323.432 599.543 323.225 598.957C323.213 598.924 323.204 598.889 323.2 598.853C323.185 598.734 323.226 598.637 323.343 598.599C323.46 598.561 323.552 598.613 323.606 598.722C323.636 598.785 323.656 598.855 323.678 598.923C323.839 599.411 324 599.9 324.162 600.389C324.179 600.391 324.197 600.393 324.215 600.394H324.214Z" fill="white"/>
<path d="M328.196 598.813C328.302 598.747 328.393 598.676 328.496 598.631C328.564 598.601 328.66 598.577 328.723 598.603C328.791 598.632 328.861 598.714 328.881 598.786C328.911 598.892 328.842 598.97 328.736 599.006C328.727 599.008 328.718 599.008 328.71 599.011C328.29 599.131 328.18 599.266 328.172 599.699C328.166 600.019 328.173 600.339 328.169 600.658C328.167 600.898 328.105 600.985 327.953 600.988C327.799 600.989 327.73 600.895 327.729 600.667C327.727 600.08 327.728 599.494 327.729 598.908C327.729 598.864 327.717 598.808 327.739 598.777C327.786 598.709 327.843 598.625 327.913 598.602C327.969 598.584 328.057 598.638 328.119 598.679C328.156 598.703 328.171 598.764 328.197 598.814L328.196 598.813Z" fill="white"/>
<path d="M321.759 599.379C321.759 598.961 321.759 598.544 321.759 598.126C321.759 598.065 321.758 598.002 321.762 597.94C321.771 597.814 321.846 597.748 321.966 597.735C322.084 597.724 322.173 597.81 322.19 597.947C322.196 597.991 322.193 598.036 322.193 598.08C322.193 598.933 322.193 599.785 322.193 600.637C322.193 600.699 322.197 600.763 322.183 600.823C322.158 600.93 322.085 600.987 321.972 600.986C321.859 600.984 321.788 600.927 321.768 600.817C321.757 600.756 321.76 600.693 321.76 600.631C321.76 600.213 321.76 599.796 321.76 599.379H321.759Z" fill="white"/>
<path d="M322.963 599.788C322.963 600.073 322.964 600.357 322.961 600.642C322.961 600.712 322.968 600.795 322.934 600.849C322.898 600.908 322.822 600.972 322.759 600.976C322.695 600.982 322.619 600.927 322.56 600.882C322.532 600.861 322.522 600.802 322.522 600.759C322.52 600.119 322.517 599.479 322.522 598.839C322.523 598.685 322.624 598.592 322.748 598.595C322.872 598.599 322.954 598.687 322.958 598.854C322.965 599.165 322.96 599.476 322.96 599.787H322.961L322.963 599.788Z" fill="white"/>
<path d="M322.987 597.964C322.991 598.094 322.895 598.199 322.762 598.209C322.613 598.219 322.504 598.122 322.501 597.976C322.498 597.843 322.593 597.738 322.724 597.727C322.862 597.716 322.983 597.825 322.988 597.964L322.987 597.964Z" fill="white"/>
<path d="M262.413 596L263.862 587.273H265.136L264.604 590.516H264.68C264.777 590.379 264.909 590.222 265.077 590.043C265.247 589.864 265.467 589.707 265.737 589.574C266.007 589.438 266.345 589.369 266.751 589.369C267.28 589.369 267.729 589.503 268.098 589.77C268.467 590.037 268.729 590.422 268.882 590.925C269.036 591.428 269.054 592.033 268.938 592.74C268.821 593.447 268.602 594.054 268.281 594.56C267.963 595.062 267.575 595.45 267.118 595.723C266.661 595.993 266.168 596.128 265.639 596.128C265.241 596.128 264.928 596.061 264.697 595.928C264.47 595.794 264.3 595.638 264.186 595.459C264.075 595.28 263.991 595.121 263.935 594.982H263.828L263.658 596H262.413ZM264.207 592.727C264.134 593.187 264.134 593.591 264.207 593.938C264.284 594.284 264.433 594.555 264.655 594.751C264.879 594.945 265.173 595.041 265.537 595.041C265.918 595.041 266.253 594.94 266.543 594.739C266.832 594.534 267.071 594.257 267.259 593.908C267.446 593.558 267.577 593.165 267.651 592.727C267.719 592.295 267.717 591.908 267.646 591.564C267.575 591.22 267.428 590.949 267.203 590.75C266.982 590.551 266.679 590.452 266.295 590.452C265.926 590.452 265.598 590.547 265.311 590.737C265.024 590.928 264.787 591.193 264.599 591.534C264.412 591.875 264.281 592.273 264.207 592.727ZM270.005 598.455C269.812 598.455 269.64 598.439 269.489 598.408C269.339 598.379 269.227 598.348 269.153 598.314L269.638 597.27C269.863 597.332 270.063 597.357 270.239 597.342C270.418 597.328 270.586 597.254 270.742 597.121C270.898 596.987 271.058 596.777 271.219 596.49L271.458 596.06L270.175 589.455H271.488L272.298 594.547H272.366L274.871 589.455H276.29L272.366 596.865C272.181 597.217 271.971 597.51 271.735 597.743C271.502 597.979 271.241 598.156 270.951 598.276C270.664 598.395 270.349 598.455 270.005 598.455Z" fill="white"/>
</svg>
